<?xml version="1.0" encoding="UTF-8" standalone="no"?>
<svg width="800" height="500" viewBox="0 0 800 500" xmlns="http://www.w3.org/2000/svg">
  <!-- Background - Dinosaur environment -->
  <defs>
    <linearGradient id="skyGradient" x1="0%" y1="0%" x2="0%" y2="60%">
      <stop offset="0%" style="stop-color:#87CEEB;stop-opacity:1" />
      <stop offset="100%" style="stop-color:#E0F7FF;stop-opacity:1" />
    </linearGradient>
    <radialGradient id="sunGradient" cx="75%" cy="20%" r="15%" fx="75%" fy="20%">
      <stop offset="0%" style="stop-color:#FFFFFF;stop-opacity:1" />
      <stop offset="30%" style="stop-color:#FFFF00;stop-opacity:1" />
      <stop offset="100%" style="stop-color:#FF7700;stop-opacity:1" />
    </radialGradient>
    <linearGradient id="groundGradient" x1="0%" y1="0%" x2="0%" y2="100%">
      <stop offset="0%" style="stop-color:#8B4513;stop-opacity:1" />
      <stop offset="100%" style="stop-color:#654321;stop-opacity:1" />
    </linearGradient>
  </defs>

  <!-- Sky -->
  <rect width="800" height="300" fill="url(#skyGradient)" />
  
  <!-- Sun with glow -->
  <circle cx="600" cy="100" r="60" fill="url(#sunGradient)" filter="url(#sunGlow)" />
  
  <!-- Desert-like Ground -->
  <rect x="0" y="300" width="800" height="200" fill="url(#groundGradient)" />
  
  <!-- Rocks and shrubs in background -->
  <ellipse cx="150" cy="320" rx="80" ry="20" fill="#5A4D41" />
  <ellipse cx="650" cy="330" rx="100" ry="30" fill="#5A4D41" />
  <ellipse cx="400" cy="350" rx="120" ry="50" fill="#6B5B4B" />
  
  <!-- Realistic Dinosaur - modified to match a child's drawing while looking 3D -->
  <g transform="translate(100, 50) scale(0.8)">
    <!-- Body - more detailed with shading -->
    <ellipse cx="300" cy="300" rx="150" ry="80" fill="#5DAE8B" />
    <ellipse cx="300" cy="300" rx="140" ry="75" fill="#7BC8A4" />
    
    <!-- Neck with muscle contours -->
    <path d="M430,270 C500,200 520,150 500,100" 
          fill="none" stroke="#5DAE8B" stroke-width="15" stroke-linecap="round" />
    <path d="M430,270 C500,200 520,150 500,100" 
          fill="none" stroke="#7BC8A4" stroke-width="12" stroke-linecap="round" />
    
    <!-- Head with more detail -->
    <ellipse cx="490" cy="90" rx="42" ry="27" fill="#5DAE8B" />
    <ellipse cx="490" cy="90" rx="38" ry="24" fill="#7BC8A4" />
    
    <!-- Eye with shine -->
    <circle cx="505" cy="85" r="8" fill="#000000" />
    <circle cx="503" cy="83" r="3" fill="#FFFFFF" />
    
    <!-- Mouth with texture -->
    <path d="M470,95 C490,110 520,105 535,95" fill="none" stroke="#5DAE8B" stroke-width="3" />
    <path d="M475,95 C490,105 515,100 530,95" fill="none" stroke="#333333" stroke-width="1.5" />
    
    <!-- Legs with muscle contours -->
    <path d="M220,350 C218,380 220,410 225,430" fill="#5DAE8B" stroke="#5DAE8B" stroke-width="22" stroke-linecap="round" />
    <path d="M220,350 C218,380 220,410 225,430" fill="#7BC8A4" stroke="#7BC8A4" stroke-width="18" stroke-linecap="round" />
    
    <path d="M360,350 C358,380 360,410 365,430" fill="#5DAE8B" stroke="#5DAE8B" stroke-width="22" stroke-linecap="round" />
    <path d="M360,350 C358,380 360,410 365,430" fill="#7BC8A4" stroke="#7BC8A4" stroke-width="18" stroke-linecap="round" />
    
    <!-- Feet -->
    <ellipse cx="225" cy="430" rx="15" ry="7" fill="#5DAE8B" />
    <ellipse cx="365" cy="430" rx="15" ry="7" fill="#5DAE8B" />
    
    <!-- Tail with curve -->
    <path d="M160,300 C100,320 50,310 30,280" 
          fill="none" stroke="#5DAE8B" stroke-width="25" stroke-linecap="round" />
    <path d="M160,300 C100,320 50,310 30,280" 
          fill="none" stroke="#7BC8A4" stroke-width="20" stroke-linecap="round" />
    
    <!-- 3D Spikes on back -->
    <polygon points="300,220 310,190 320,220" fill="#E55A5A" stroke="#CC4C4C" stroke-width="1" />
    <polygon points="330,220 340,180 350,220" fill="#E55A5A" stroke="#CC4C4C" stroke-width="1" />
    <polygon points="360,220 370,185 380,220" fill="#E55A5A" stroke="#CC4C4C" stroke-width="1" />
    <polygon points="390,230 400,195 410,230" fill="#E55A5A" stroke="#CC4C4C" stroke-width="1" />
    
    <!-- Highlights for 3D effect -->
    <path d="M300,280 C350,260 400,270 430,290" fill="none" stroke="#8ED9B5" stroke-width="2" />
    <path d="M160,290 C200,270 250,260 300,270" fill="none" stroke="#8ED9B5" stroke-width="2" />
  </g>
  
  <!-- Realistic shadow -->
  <ellipse cx="350" cy="430" rx="200" ry="30" fill="rgba(0,0,0,0.3)" />
  
  <!-- Distant mountains -->
  <path d="M0,300 L200,220 L300,280 L500,200 L650,250 L800,220 L800,300 Z" fill="#8B7B6B" opacity="0.6" />
  
  <!-- Title - with stylish font to match photorealistic render -->
  <text x="400" y="460" text-anchor="middle" font-family="Arial, sans-serif" font-size="24" font-weight="bold" fill="#FFFFFF">My Dinosaur - Brought to Life</text>
  
  <!-- Add a filter for the sun glow -->
  <defs>
    <filter id="sunGlow" x="-30%" y="-30%" width="160%" height="160%">
      <feGaussianBlur in="SourceGraphic" stdDeviation="15" result="glow" />
      <feComposite in="SourceGraphic" in2="glow" operator="over" />
    </filter>
  </defs>
</svg>