<?xml version="1.0" encoding="UTF-8" standalone="no"?>
<svg width="600" height="600" viewBox="0 0 600 600" xmlns="http://www.w3.org/2000/svg" xmlns:xlink="http://www.w3.org/1999/xlink">
  <defs>
    <!-- Sky gradient -->
    <linearGradient id="skyGradient" x1="0%" y1="0%" x2="0%" y2="100%">
      <stop offset="0%" style="stop-color:#87CEEB;stop-opacity:1" />
      <stop offset="100%" style="stop-color:#E0F7FF;stop-opacity:1" />
    </linearGradient>
    
    <!-- Grass texture -->
    <pattern id="grassPattern" patternUnits="userSpaceOnUse" width="100" height="100">
      <rect width="100" height="100" fill="#5AA02C" />
      <path d="M0,0 L10,15 L0,30 Z" fill="#7CFC00" transform="translate(10,60)" />
      <path d="M0,0 L10,15 L0,30 Z" fill="#7CFC00" transform="translate(50,70)" />
      <path d="M0,0 L10,15 L0,30 Z" fill="#7CFC00" transform="translate(80,65)" />
      <path d="M0,0 L10,15 L0,30 Z" fill="#7CFC00" transform="translate(30,75)" />
    </pattern>
    
    <!-- Cloud filter -->
    <filter id="cloudFilter" x="-20%" y="-20%" width="140%" height="140%">
      <feGaussianBlur in="SourceAlpha" stdDeviation="5" result="blur" />
      <feComponentTransfer>
        <feFuncA type="linear" slope="0.3" />
      </feComponentTransfer>
      <feComposite in="SourceGraphic" />
    </filter>
    
    <!-- Sun glow filter -->
    <filter id="sunGlow" x="-50%" y="-50%" width="200%" height="200%">
      <feGaussianBlur in="SourceGraphic" stdDeviation="10" result="blur" />
      <feComposite in="SourceGraphic" in2="blur" operator="over" />
    </filter>
    
    <!-- Tree leaf texture -->
    <radialGradient id="leafGradient" cx="50%" cy="50%" r="50%" fx="50%" fy="50%">
      <stop offset="0%" style="stop-color:#2E8B57;stop-opacity:1" />
      <stop offset="80%" style="stop-color:#228B22;stop-opacity:1" />
      <stop offset="100%" style="stop-color:#006400;stop-opacity:1" />
    </radialGradient>
  </defs>
  
  <!-- Sky background -->
  <rect width="600" height="300" fill="url(#skyGradient)" />
  
  <!-- Grass ground -->
  <rect x="0" y="300" width="600" height="300" fill="url(#grassPattern)" />
  
  <!-- Sun with glow effect -->
  <circle cx="500" cy="80" r="40" fill="#FFD700" filter="url(#sunGlow)" />
  <circle cx="500" cy="80" r="35" fill="#FFA500" />
  <circle cx="500" cy="80" r="30" fill="#FFFF00" />
  
  <!-- Realistic clouds -->
  <g filter="url(#cloudFilter)">
    <ellipse cx="150" cy="80" rx="50" ry="25" fill="#FFFFFF" />
    <ellipse cx="180" cy="70" rx="40" ry="20" fill="#FFFFFF" />
    <ellipse cx="130" cy="70" rx="30" ry="15" fill="#FFFFFF" />
    <ellipse cx="165" cy="95" rx="35" ry="15" fill="#FFFFFF" />
  </g>
  
  <g filter="url(#cloudFilter)">
    <ellipse cx="280" cy="100" rx="45" ry="20" fill="#FFFFFF" />
    <ellipse cx="260" cy="90" rx="35" ry="17" fill="#FFFFFF" />
    <ellipse cx="300" cy="95" rx="30" ry="15" fill="#FFFFFF" />
    <ellipse cx="270" cy="110" rx="40" ry="15" fill="#FFFFFF" />
  </g>
  
  <!-- Realistic house -->
  <rect x="200" y="150" width="200" height="150" fill="#F5DEB3" stroke="#A0522D" stroke-width="3" />
  <polygon points="200,150 300,50 400,150" fill="#A52A2A" stroke="#8B4513" stroke-width="3" />
  <rect x="200" y="150" width="200" height="10" fill="#8B4513" stroke="#8B4513" stroke-width="1" />
  
  <!-- House details -->
  <rect x="270" y="230" width="60" height="70" fill="#8B4513" stroke="#5D4037" stroke-width="2" />
  <circle cx="290" cy="265" r="5" fill="#FFD700" />
  <rect x="220" y="170" width="40" height="40" fill="#B0E0E6" stroke="#4682B4" stroke-width="2" />
  <line x1="220" y1="190" x2="260" y2="190" stroke="#4682B4" stroke-width="2" />
  <line x1="240" y1="170" x2="240" y2="210" stroke="#4682B4" stroke-width="2" />
  <rect x="340" y="170" width="40" height="40" fill="#B0E0E6" stroke="#4682B4" stroke-width="2" />
  <line x1="340" y1="190" x2="380" y2="190" stroke="#4682B4" stroke-width="2" />
  <line x1="360" y1="170" x2="360" y2="210" stroke="#4682B4" stroke-width="2" />
  
  <!-- Realistic tree -->
  <rect x="100" y="220" width="20" height="80" fill="#8B4513" />
  <ellipse cx="110" cy="180" rx="45" ry="50" fill="url(#leafGradient)" />
  
  <!-- Realistic flowers -->
  <g transform="translate(50, 360)">
    <rect x="-1" y="0" width="2" height="30" fill="#006400" />
    <ellipse cx="0" cy="-5" rx="10" ry="3" fill="#006400" />
    <circle cx="-5" cy="-10" r="5" fill="#FF00FF" />
    <circle cx="0" cy="-12" r="5" fill="#FF00FF" />
    <circle cx="5" cy="-10" r="5" fill="#FF00FF" />
    <circle cx="-2" cy="-5" r="5" fill="#FF00FF" />
    <circle cx="2" cy="-5" r="5" fill="#FF00FF" />
    <circle cx="0" cy="-8" r="3" fill="#FFFF00" />
  </g>
  
  <g transform="translate(90, 380)">
    <rect x="-1" y="0" width="2" height="30" fill="#006400" />
    <ellipse cx="0" cy="-5" rx="10" ry="3" fill="#006400" />
    <circle cx="-5" cy="-10" r="5" fill="#FF69B4" />
    <circle cx="0" cy="-12" r="5" fill="#FF69B4" />
    <circle cx="5" cy="-10" r="5" fill="#FF69B4" />
    <circle cx="-2" cy="-5" r="5" fill="#FF69B4" />
    <circle cx="2" cy="-5" r="5" fill="#FF69B4" />
    <circle cx="0" cy="-8" r="3" fill="#FFFF00" />
  </g>
  
  <g transform="translate(130, 350)">
    <rect x="-1" y="0" width="2" height="30" fill="#006400" />
    <ellipse cx="0" cy="-5" rx="10" ry="3" fill="#006400" />
    <circle cx="-5" cy="-10" r="5" fill="#FF6347" />
    <circle cx="0" cy="-12" r="5" fill="#FF6347" />
    <circle cx="5" cy="-10" r="5" fill="#FF6347" />
    <circle cx="-2" cy="-5" r="5" fill="#FF6347" />
    <circle cx="2" cy="-5" r="5" fill="#FF6347" />
    <circle cx="0" cy="-8" r="3" fill="#FFFF00" />
  </g>
  
  <!-- Realistic person -->
  <g transform="translate(470, 400)">
    <!-- Head -->
    <circle cx="0" cy="0" r="30" fill="#FFE4C4" stroke="#8B4513" stroke-width="1" />
    
    <!-- Hair -->
    <path d="M-25,-5 Q-15,-35 0,-32 Q15,-35 25,-5 Q20,-20 10,-25 Q0,-30 -10,-25 Q-20,-20 -25,-5 Z" fill="#8B4513" />
    
    <!-- Face details -->
    <ellipse cx="-12" cy="-5" rx="5" ry="3" fill="#FFFFFF" />
    <circle cx="-12" cy="-5" r="2" fill="#000000" />
    <ellipse cx="12" cy="-5" rx="5" ry="3" fill="#FFFFFF" />
    <circle cx="12" cy="-5" r="2" fill="#000000" />
    <path d="M-10,10 Q0,20 10,10" stroke="#FF0000" stroke-width="2" fill="none" />
    
    <!-- Body -->
    <path d="M0,30 L0,100" stroke="#000080" stroke-width="8" fill="none" />
    
    <!-- Arms with shading -->
    <path d="M0,50 L-40,70" stroke="#000080" stroke-width="6" fill="none" />
    <path d="M0,50 L40,70" stroke="#000080" stroke-width="6" fill="none" />
    <circle cx="-40" cy="70" r="8" fill="#FFE4C4" />
    <circle cx="40" cy="70" r="8" fill="#FFE4C4" />
    
    <!-- Legs with shading -->
    <path d="M0,100 L-30,150" stroke="#000080" stroke-width="8" fill="none" />
    <path d="M0,100 L30,150" stroke="#000080" stroke-width="8" fill="none" />
    <rect x="-35" y="150" width="10" height="5" fill="#8B4513" />
    <rect x="25" y="150" width="10" height="5" fill="#8B4513" />
  </g>
</svg>