<?xml version="1.0" encoding="UTF-8" standalone="no"?>
<svg width="800" height="500" viewBox="0 0 800 500" xmlns="http://www.w3.org/2000/svg">
  <!-- Hyper-realistic monster version preserving the child drawing's features -->
  <defs>
    <!-- Gradients for realistic 3D feel -->
    <linearGradient id="skyGradient" x1="0%" y1="0%" x2="0%" y2="100%">
      <stop offset="0%" style="stop-color:#B0E0E6;stop-opacity:1" />
      <stop offset="100%" style="stop-color:#87CEEB;stop-opacity:1" />
    </linearGradient>
    
    <radialGradient id="monsterSkin" cx="50%" cy="50%" r="70%" fx="40%" fy="40%">
      <stop offset="0%" style="stop-color:#B5EAD7;stop-opacity:1" />
      <stop offset="80%" style="stop-color:#6ECB99;stop-opacity:1" />
      <stop offset="100%" style="stop-color:#2D8B61;stop-opacity:1" />
    </radialGradient>
    
    <radialGradient id="sunGradient" cx="50%" cy="50%" r="70%" fx="30%" fy="30%">
      <stop offset="0%" style="stop-color:#FFFF99;stop-opacity:1" />
      <stop offset="70%" style="stop-color:#FFCC33;stop-opacity:1" />
      <stop offset="100%" style="stop-color:#FF9933;stop-opacity:1" />
    </radialGradient>
    
    <!-- Filters for realistic effects -->
    <filter id="softShadow" x="-20%" y="-20%" width="140%" height="140%">
      <feGaussianBlur in="SourceAlpha" stdDeviation="10" />
      <feOffset dx="5" dy="10" result="offsetblur" />
      <feComponentTransfer>
        <feFuncA type="linear" slope="0.5" />
      </feComponentTransfer>
      <feMerge>
        <feMergeNode />
        <feMergeNode in="SourceGraphic" />
      </feMerge>
    </filter>
    
    <filter id="bumpMap" x="0%" y="0%" width="100%" height="100%">
      <feTurbulence type="turbulence" baseFrequency="0.05" numOctaves="2" result="turbulence" />
      <feDisplacementMap in="SourceGraphic" in2="turbulence" scale="5" xChannelSelector="R" yChannelSelector="G" />
    </filter>
    
    <filter id="glowEffect" x="-20%" y="-20%" width="140%" height="140%">
      <feGaussianBlur in="SourceGraphic" stdDeviation="5" result="blur" />
      <feComposite in="SourceGraphic" in2="blur" operator="over" />
    </filter>
  </defs>

  <!-- Realistic sky background -->
  <rect width="800" height="500" fill="url(#skyGradient)" />
  
  <!-- Realistic ground/grass -->
  <rect x="0" y="350" width="800" height="150" fill="#8FBC8F" />
  <path d="M0,350 Q200,330 400,350 Q600,370 800,350 L800,500 L0,500 Z" fill="#6B8E23" />
  
  <!-- Realistic sun -->
  <circle cx="100" cy="100" r="50" fill="url(#sunGradient)" filter="url(#glowEffect)" />
  <circle cx="100" cy="100" r="45" fill="url(#sunGradient)" />
  
  <!-- Lens flare from the sun -->
  <circle cx="120" cy="120" r="10" fill="#FFFFFF" opacity="0.7" />
  <circle cx="150" cy="150" r="5" fill="#FFFFFF" opacity="0.5" />
  <circle cx="180" cy="180" r="3" fill="#FFFFFF" opacity="0.3" />
  
  <!-- Realistic monster with textures and lighting -->
  <g transform="translate(200, 50)" filter="url(#softShadow)">
    <!-- Monster body with realistic texture -->
    <ellipse cx="200" cy="200" rx="120" ry="100" fill="#4D8063" />
    <ellipse cx="200" cy="200" rx="118" ry="98" fill="url(#monsterSkin)" filter="url(#bumpMap)" />
    
    <!-- Realistic monster features -->
    <!-- Eyes with realistic detail -->
    <circle cx="160" cy="160" r="28" fill="#FFFFFF" />
    <circle cx="160" cy="160" r="26" fill="#F0F0F0" />
    <circle cx="160" cy="160" r="25" fill="#E0E0E0" stroke="#000000" stroke-width="1" />
    <circle cx="160" cy="160" r="13" fill="#252525" />
    <circle cx="160" cy="160" r="10" fill="#000000" />
    <circle cx="157" cy="157" r="4" fill="#FFFFFF" opacity="0.8" />
    
    <circle cx="240" cy="160" r="28" fill="#FFFFFF" />
    <circle cx="240" cy="160" r="26" fill="#F0F0F0" />
    <circle cx="240" cy="160" r="25" fill="#E0E0E0" stroke="#000000" stroke-width="1" />
    <circle cx="240" cy="160" r="13" fill="#252525" />
    <circle cx="240" cy="160" r="10" fill="#000000" />
    <circle cx="237" cy="157" r="4" fill="#FFFFFF" opacity="0.8" />
    
    <!-- Realistic mouth and teeth -->
    <path d="M140,230 Q170,265 200,270 Q230,265 260,230" fill="#701C1C" stroke="#5A0000" stroke-width="2" />
    <path d="M140,230 Q200,280 260,230" fill="none" stroke="#000000" stroke-width="2" />
    
    <!-- Realistic teeth with dimension -->
    <polygon points="160,230 170,245 180,230" fill="#F5F5F5" stroke="#E0E0E0" stroke-width="1" />
    <polygon points="190,230 200,250 210,230" fill="#F5F5F5" stroke="#E0E0E0" stroke-width="1" />
    <polygon points="220,230 230,245 240,230" fill="#F5F5F5" stroke="#E0E0E0" stroke-width="1" />
    
    <!-- Realistic arms with musculature -->
    <path d="M90,180 C75,175 55,165 40,150" fill="#6ECB99" />
    <path d="M90,180 C75,175 55,165 40,150" stroke="#2D8B61" stroke-width="25" stroke-linecap="round" />
    <path d="M90,180 C75,175 55,165 40,150" stroke="url(#monsterSkin)" stroke-width="24" stroke-linecap="round" />
    
    <path d="M310,180 C325,175 345,165 360,150" fill="#6ECB99" />
    <path d="M310,180 C325,175 345,165 360,150" stroke="#2D8B61" stroke-width="25" stroke-linecap="round" />
    <path d="M310,180 C325,175 345,165 360,150" stroke="url(#monsterSkin)" stroke-width="24" stroke-linecap="round" />
    
    <!-- Realistic legs with musculature -->
    <path d="M150,290 C145,310 135,330 130,350" fill="#6ECB99" />
    <path d="M150,290 C145,310 135,330 130,350" stroke="#2D8B61" stroke-width="30" stroke-linecap="round" />
    <path d="M150,290 C145,310 135,330 130,350" stroke="url(#monsterSkin)" stroke-width="29" stroke-linecap="round" />
    
    <path d="M250,290 C255,310 265,330 270,350" fill="#6ECB99" />
    <path d="M250,290 C255,310 265,330 270,350" stroke="#2D8B61" stroke-width="30" stroke-linecap="round" />
    <path d="M250,290 C255,310 265,330 270,350" stroke="url(#monsterSkin)" stroke-width="29" stroke-linecap="round" />
    
    <!-- Realistic antennas with glow effect -->
    <path d="M170,110 C165,90 155,70 150,50" fill="#6ECB99" />
    <path d="M170,110 C165,90 155,70 150,50" stroke="#2D8B61" stroke-width="10" stroke-linecap="round" />
    <path d="M170,110 C165,90 155,70 150,50" stroke="url(#monsterSkin)" stroke-width="9" stroke-linecap="round" />
    <circle cx="150" cy="45" r="12" fill="#FF6B6B" filter="url(#glowEffect)" />
    <circle cx="150" cy="45" r="10" fill="#FF7979" stroke="#DD5555" stroke-width="1" />
    <circle cx="148" cy="43" r="4" fill="#FFCBCB" opacity="0.7" />
    
    <path d="M230,110 C235,90 245,70 250,50" fill="#6ECB99" />
    <path d="M230,110 C235,90 245,70 250,50" stroke="#2D8B61" stroke-width="10" stroke-linecap="round" />
    <path d="M230,110 C235,90 245,70 250,50" stroke="url(#monsterSkin)" stroke-width="9" stroke-linecap="round" />
    <circle cx="250" cy="45" r="12" fill="#FF6B6B" filter="url(#glowEffect)" />
    <circle cx="250" cy="45" r="10" fill="#FF7979" stroke="#DD5555" stroke-width="1" />
    <circle cx="248" cy="43" r="4" fill="#FFCBCB" opacity="0.7" />
  </g>
  
  <!-- Realistic environment elements -->
  <ellipse cx="300" cy="380" rx="100" ry="20" fill="#608048" opacity="0.5" />
  <ellipse cx="500" cy="400" rx="120" ry="25" fill="#608048" opacity="0.4" />
  
  <!-- Subtle clouds -->
  <ellipse cx="600" cy="120" rx="80" ry="30" fill="#FFFFFF" opacity="0.6" />
  <ellipse cx="550" cy="100" rx="50" ry="20" fill="#FFFFFF" opacity="0.7" />
  
  <!-- Title with professional typography -->
  <text x="400" y="450" text-anchor="middle" font-family="Arial, sans-serif" font-size="24" font-weight="bold" fill="#333333" stroke="#FFFFFF" stroke-width="0.5">My Friendly Monster - Hyper-Realistic</text>
</svg>