<?xml version="1.0" encoding="UTF-8" standalone="no"?>
<svg width="800" height="500" viewBox="0 0 800 500" xmlns="http://www.w3.org/2000/svg">
  <!-- Urban cityscape background -->
  <defs>
    <linearGradient id="skyGradient" x1="0%" y1="0%" x2="0%" y2="100%">
      <stop offset="0%" style="stop-color:#1a2a6c;stop-opacity:1" />
      <stop offset="50%" style="stop-color:#b21f1f;stop-opacity:1" />
      <stop offset="100%" style="stop-color:#fdbb2d;stop-opacity:1" />
    </linearGradient>
    <radialGradient id="sunGradient" cx="100%" cy="0%" r="80%" fx="100%" fy="0%">
      <stop offset="0%" style="stop-color:#ffffff;stop-opacity:1" />
      <stop offset="40%" style="stop-color:#ffeb3b;stop-opacity:1" />
      <stop offset="100%" style="stop-color:#ff9800;stop-opacity:1" />
    </radialGradient>
    <filter id="buildingGlow" x="-10%" y="-10%" width="120%" height="120%">
      <feGaussianBlur in="SourceGraphic" stdDeviation="3" result="blur" />
      <feComposite in="SourceGraphic" in2="blur" operator="over" />
    </filter>
    <filter id="capeWave">
      <feTurbulence type="fractalNoise" baseFrequency="0.01" numOctaves="2" result="turbulence" />
      <feDisplacementMap in="SourceGraphic" in2="turbulence" scale="10" xChannelSelector="R" yChannelSelector="G" />
    </filter>
    <linearGradient id="muscleGradient" x1="0%" y1="0%" x2="100%" y2="0%">
      <stop offset="0%" style="stop-color:#d3a17e;stop-opacity:1" />
      <stop offset="50%" style="stop-color:#ffe0b2;stop-opacity:1" />
      <stop offset="100%" style="stop-color:#d3a17e;stop-opacity:1" />
    </linearGradient>
  </defs>

  <!-- Dramatic sky -->
  <rect width="800" height="500" fill="url(#skyGradient)" />
  
  <!-- Sun setting -->
  <circle cx="700" cy="80" r="60" fill="url(#sunGradient)" />
  
  <!-- Distant mountains/cityscape silhouette -->
  <path d="M0,300 L100,280 L200,320 L300,270 L400,300 L500,250 L600,280 L700,240 L800,260 L800,500 L0,500 Z" 
        fill="#1a1a1a" opacity="0.7" />
  
  <!-- Buildings with realistic details -->
  <g filter="url(#buildingGlow)">
    <!-- Tall skyscraper -->
    <rect x="200" y="300" width="100" height="200" fill="#424242" />
    <rect x="205" y="305" width="90" height="195" fill="#616161" />
    
    <!-- Windows grid pattern -->
    <g>
      <rect x="215" y="315" width="15" height="15" fill="#90CAF9" opacity="0.9" />
      <rect x="240" y="315" width="15" height="15" fill="#90CAF9" opacity="0.7" />
      <rect x="265" y="315" width="15" height="15" fill="#90CAF9" opacity="0.9" />
      
      <rect x="215" y="340" width="15" height="15" fill="#90CAF9" opacity="0.7" />
      <rect x="240" y="340" width="15" height="15" fill="#90CAF9" opacity="0.9" />
      <rect x="265" y="340" width="15" height="15" fill="#90CAF9" opacity="0.7" />
      
      <rect x="215" y="365" width="15" height="15" fill="#90CAF9" opacity="0.9" />
      <rect x="240" y="365" width="15" height="15" fill="#90CAF9" opacity="0.7" />
      <rect x="265" y="365" width="15" height="15" fill="#90CAF9" opacity="0.9" />
      
      <rect x="215" y="390" width="15" height="15" fill="#90CAF9" opacity="0.7" />
      <rect x="240" y="390" width="15" height="15" fill="#90CAF9" opacity="0.9" />
      <rect x="265" y="390" width="15" height="15" fill="#90CAF9" opacity="0.7" />
      
      <rect x="215" y="415" width="15" height="15" fill="#90CAF9" opacity="0.9" />
      <rect x="240" y="415" width="15" height="15" fill="#90CAF9" opacity="0.7" />
      <rect x="265" y="415" width="15" height="15" fill="#90CAF9" opacity="0.9" />
    </g>
    
    <!-- Medium building -->
    <rect x="100" y="350" width="80" height="150" fill="#424242" />
    <rect x="105" y="355" width="70" height="145" fill="#616161" />
    
    <!-- Windows with lights -->
    <rect x="115" y="370" width="12" height="12" fill="#FFEB3B" opacity="0.9" />
    <rect x="137" y="370" width="12" height="12" fill="#FFEB3B" opacity="0.7" />
    <rect x="159" y="370" width="12" height="12" fill="#FFEB3B" opacity="0.9" />
    
    <rect x="115" y="392" width="12" height="12" fill="#FFEB3B" opacity="0.7" />
    <rect x="137" y="392" width="12" height="12" fill="#FFEB3B" opacity="0.9" />
    <rect x="159" y="392" width="12" height="12" fill="#FFEB3B" opacity="0.7" />
    
    <rect x="115" y="414" width="12" height="12" fill="#FFEB3B" opacity="0.9" />
    <rect x="137" y="414" width="12" height="12" fill="#FFEB3B" opacity="0.7" />
    <rect x="159" y="414" width="12" height="12" fill="#FFEB3B" opacity="0.9" />
    
    <!-- Office building -->
    <rect x="500" y="380" width="70" height="120" fill="#424242" />
    <rect x="505" y="385" width="60" height="115" fill="#616161" />
    
    <rect x="515" y="395" width="10" height="10" fill="#90CAF9" opacity="0.8" />
    <rect x="535" y="395" width="10" height="10" fill="#90CAF9" opacity="0.6" />
    <rect x="555" y="395" width="10" height="10" fill="#90CAF9" opacity="0.8" />
    
    <rect x="515" y="415" width="10" height="10" fill="#90CAF9" opacity="0.6" />
    <rect x="535" y="415" width="10" height="10" fill="#90CAF9" opacity="0.8" />
    <rect x="555" y="415" width="10" height="10" fill="#90CAF9" opacity="0.6" />
    
    <rect x="515" y="435" width="10" height="10" fill="#90CAF9" opacity="0.8" />
    <rect x="535" y="435" width="10" height="10" fill="#90CAF9" opacity="0.6" />
    <rect x="555" y="435" width="10" height="10" fill="#90CAF9" opacity="0.8" />
    
    <!-- Corporate tower -->
    <rect x="600" y="320" width="90" height="180" fill="#424242" />
    <rect x="605" y="325" width="80" height="175" fill="#616161" />
    
    <rect x="620" y="340" width="15" height="15" fill="#90CAF9" opacity="0.7" />
    <rect x="645" y="340" width="15" height="15" fill="#90CAF9" opacity="0.9" />
    <rect x="670" y="340" width="15" height="15" fill="#90CAF9" opacity="0.7" />
    
    <rect x="620" y="365" width="15" height="15" fill="#90CAF9" opacity="0.9" />
    <rect x="645" y="365" width="15" height="15" fill="#90CAF9" opacity="0.7" />
    <rect x="670" y="365" width="15" height="15" fill="#90CAF9" opacity="0.9" />
    
    <rect x="620" y="390" width="15" height="15" fill="#90CAF9" opacity="0.7" />
    <rect x="645" y="390" width="15" height="15" fill="#90CAF9" opacity="0.9" />
    <rect x="670" y="390" width="15" height="15" fill="#90CAF9" opacity="0.7" />
  </g>
  
  <!-- Realistic 3D superhero based on child's drawing -->
  <g transform="translate(300, 100)">
    <!-- Dynamic cape with wave effect -->
    <path d="M70,155 Q100,220 130,155 L130,260 Q100,290 70,260 Z" 
          fill="#cc0000" filter="url(#capeWave)" />
    <path d="M75,155 Q100,210 125,155 L125,250 Q100,280 75,250 Z" 
          fill="#ff5252" filter="url(#capeWave)" />
    <path d="M80,155 Q100,200 120,155 L120,240 Q100,270 80,240 Z" 
          fill="#ff7b7b" filter="url(#capeWave)" />
    
    <!-- Body in heroic pose -->
    <rect x="77" y="150" width="46" height="80" rx="5" fill="#0d47a1" />
    <rect x="75" y="150" width="50" height="80" rx="5" fill="#1565c0" />
    <path d="M75,155 L125,155 L125,205 C110,215 90,215 75,205 Z" fill="#1e88e5" />
    
    <!-- Superhero emblem -->
    <path d="M100,165 L110,180 L115,165 L100,190 L85,165 L90,180 Z" fill="#ffffff" />
    <text x="100" y="190" text-anchor="middle" font-family="Arial" font-weight="bold" font-size="24" fill="#ffffff">S</text>
    
    <!-- Muscular arms -->
    <path d="M75,160 C50,165 30,190 25,200" stroke="url(#muscleGradient)" stroke-width="15" stroke-linecap="round" />
    <path d="M125,160 C150,165 170,190 175,200" stroke="url(#muscleGradient)" stroke-width="15" stroke-linecap="round" />
    
    <!-- Legs in dynamic pose -->
    <path d="M85,230 C75,250 70,280 65,300" stroke="#7b1fa2" stroke-width="20" stroke-linecap="round" />
    <path d="M115,230 C125,250 130,280 135,300" stroke="#7b1fa2" stroke-width="20" stroke-linecap="round" />
    <path d="M85,230 C75,250 70,280 65,300" stroke="#9c27b0" stroke-width="18" stroke-linecap="round" />
    <path d="M115,230 C125,250 130,280 135,300" stroke="#9c27b0" stroke-width="18" stroke-linecap="round" />
    
    <!-- Head with realistic features -->
    <circle cx="100" cy="100" r="52" fill="#d3a17e" />
    <circle cx="100" cy="100" r="50" fill="#ffe0b2" />
    
    <!-- Mask -->
    <path d="M60,82 Q100,62 140,82" fill="#006400" />
    <path d="M60,80 Q100,60 140,80" fill="#2e7d32" />
    <rect x="60" y="70" width="80" height="30" rx="15" fill="#43a047" />
    
    <!-- Facial features -->
    <circle cx="80" cy="85" r="10" fill="#ffffff" stroke="#cccccc" stroke-width="1" />
    <circle cx="120" cy="85" r="10" fill="#ffffff" stroke="#cccccc" stroke-width="1" />
    <circle cx="80" cy="85" r="5" fill="#000000" />
    <circle cx="120" cy="85" r="5" fill="#000000" />
    <circle cx="82" cy="83" r="2" fill="#ffffff" />
    <circle cx="122" cy="83" r="2" fill="#ffffff" />
    
    <!-- Determined expression -->
    <path d="M80,115 Q100,130 120,115" fill="none" stroke="#000000" stroke-width="2" />
    <path d="M70,70 L75,75" stroke="#333333" stroke-width="2" />
    <path d="M130,70 L125,75" stroke="#333333" stroke-width="2" />
  </g>
  
  <!-- Dramatic lighting effect -->
  <circle cx="400" cy="250" r="200" fill="url(#sunGradient)" opacity="0.1" />
  
  <!-- Distant clouds with dimension -->
  <ellipse cx="150" cy="80" rx="70" ry="35" fill="#ffffff" opacity="0.4" />
  <ellipse cx="140" cy="75" rx="60" ry="30" fill="#ffffff" opacity="0.6" />
  <ellipse cx="650" cy="120" rx="90" ry="45" fill="#ffffff" opacity="0.4" />
  <ellipse cx="640" cy="115" rx="80" ry="40" fill="#ffffff" opacity="0.6" />
  
  <!-- Title with premium look -->
  <text x="400" y="460" text-anchor="middle" font-family="Arial, sans-serif" font-size="24" font-weight="bold" fill="#FFFFFF" stroke="#000000" stroke-width="0.5">My Superhero - Photorealistic Edition</text>
</svg>